%TF.GenerationSoftware,KiCad,Pcbnew,8.0.2*%
%TF.CreationDate,2024-06-05T00:37:09+02:00*%
%TF.ProjectId,tally_lanc,74616c6c-795f-46c6-916e-632e6b696361,rev?*%
%TF.SameCoordinates,Original*%
%TF.FileFunction,Soldermask,Top*%
%TF.FilePolarity,Negative*%
%FSLAX46Y46*%
G04 Gerber Fmt 4.6, Leading zero omitted, Abs format (unit mm)*
G04 Created by KiCad (PCBNEW 8.0.2) date 2024-06-05 00:37:09*
%MOMM*%
%LPD*%
G01*
G04 APERTURE LIST*
%ADD10O,1.600000X1.600000*%
%ADD11C,1.600000*%
%ADD12R,1.500000X1.050000*%
%ADD13O,1.500000X1.050000*%
%ADD14C,1.524000*%
%ADD15R,1.700000X1.700000*%
%ADD16O,1.700000X1.700000*%
%ADD17R,1.600000X1.600000*%
%ADD18R,1.800000X1.800000*%
%ADD19C,1.800000*%
%ADD20O,1.800000X1.800000*%
G04 APERTURE END LIST*
D10*
%TO.C,R3*%
X102235000Y-90170000D03*
D11*
X112395000Y-90170000D03*
%TD*%
%TO.C,R2*%
X99060000Y-86360000D03*
D10*
X99060000Y-96520000D03*
%TD*%
D11*
%TO.C,R1*%
X86360000Y-95885000D03*
D10*
X86360000Y-85725000D03*
%TD*%
D12*
%TO.C,Q1*%
X95250000Y-95250000D03*
D13*
X95250000Y-93980000D03*
X95250000Y-92710000D03*
%TD*%
D14*
%TO.C,J5*%
X71120000Y-93980000D03*
X83820000Y-93980000D03*
X80010000Y-96520000D03*
X80010000Y-91440000D03*
%TD*%
D15*
%TO.C,J2*%
X103490000Y-78740000D03*
D16*
X100950000Y-78740000D03*
X98410000Y-78740000D03*
%TD*%
D15*
%TO.C,J1*%
X85720000Y-78740000D03*
D16*
X83180000Y-78740000D03*
X80640000Y-78740000D03*
X78100000Y-78740000D03*
X75560000Y-78740000D03*
%TD*%
D17*
%TO.C,D2*%
X92710000Y-97790000D03*
D10*
X85090000Y-97790000D03*
%TD*%
D18*
%TO.C,D3*%
X88265000Y-83820000D03*
D19*
X90805000Y-83820000D03*
X93345000Y-83820000D03*
X95885000Y-83820000D03*
%TD*%
D11*
%TO.C,R4*%
X112395000Y-87630000D03*
D10*
X102235000Y-87630000D03*
%TD*%
D11*
%TO.C,R5*%
X112395000Y-85090000D03*
D10*
X102235000Y-85090000D03*
%TD*%
D18*
%TO.C,D1*%
X89535000Y-95250000D03*
D20*
X89535000Y-87630000D03*
%TD*%
D15*
%TO.C,J3*%
X103505000Y-101600000D03*
D16*
X100965000Y-101600000D03*
X98425000Y-101600000D03*
X95885000Y-101600000D03*
X93345000Y-101600000D03*
X90805000Y-101600000D03*
X88265000Y-101600000D03*
X85725000Y-101600000D03*
X83185000Y-101600000D03*
X80645000Y-101600000D03*
X78105000Y-101600000D03*
X75565000Y-101600000D03*
%TD*%
D14*
%TO.C,J4*%
X71120000Y-86360000D03*
X83820000Y-86360000D03*
X80010000Y-88900000D03*
X80010000Y-83820000D03*
%TD*%
M02*
