%TF.GenerationSoftware,KiCad,Pcbnew,8.0.2*%
%TF.CreationDate,2024-06-05T00:37:09+02:00*%
%TF.ProjectId,tally_lanc,74616c6c-795f-46c6-916e-632e6b696361,rev?*%
%TF.SameCoordinates,Original*%
%TF.FileFunction,Copper,L1,Top*%
%TF.FilePolarity,Positive*%
%FSLAX46Y46*%
G04 Gerber Fmt 4.6, Leading zero omitted, Abs format (unit mm)*
G04 Created by KiCad (PCBNEW 8.0.2) date 2024-06-05 00:37:09*
%MOMM*%
%LPD*%
G01*
G04 APERTURE LIST*
%TA.AperFunction,ComponentPad*%
%ADD10O,1.600000X1.600000*%
%TD*%
%TA.AperFunction,ComponentPad*%
%ADD11C,1.600000*%
%TD*%
%TA.AperFunction,ComponentPad*%
%ADD12R,1.500000X1.050000*%
%TD*%
%TA.AperFunction,ComponentPad*%
%ADD13O,1.500000X1.050000*%
%TD*%
%TA.AperFunction,ComponentPad*%
%ADD14C,1.524000*%
%TD*%
%TA.AperFunction,ComponentPad*%
%ADD15R,1.700000X1.700000*%
%TD*%
%TA.AperFunction,ComponentPad*%
%ADD16O,1.700000X1.700000*%
%TD*%
%TA.AperFunction,ComponentPad*%
%ADD17R,1.600000X1.600000*%
%TD*%
%TA.AperFunction,ComponentPad*%
%ADD18R,1.800000X1.800000*%
%TD*%
%TA.AperFunction,ComponentPad*%
%ADD19C,1.800000*%
%TD*%
%TA.AperFunction,ComponentPad*%
%ADD20O,1.800000X1.800000*%
%TD*%
G04 APERTURE END LIST*
D10*
%TO.P,R3,2,-*%
%TO.N,Net-(D3-RA)*%
X102235000Y-90170000D03*
D11*
%TO.P,R3,1,+*%
%TO.N,/Rood*%
X112395000Y-90170000D03*
%TD*%
%TO.P,R2,1,+*%
%TO.N,/lanc_tx*%
X99060000Y-86360000D03*
D10*
%TO.P,R2,2,-*%
%TO.N,Net-(Q1-B)*%
X99060000Y-96520000D03*
%TD*%
D11*
%TO.P,R1,1,+*%
%TO.N,Net-(R1-+)*%
X86360000Y-95885000D03*
D10*
%TO.P,R1,2,-*%
%TO.N,Net-(D1-K)*%
X86360000Y-85725000D03*
%TD*%
D12*
%TO.P,Q1,1,C*%
%TO.N,Net-(D1-K)*%
X95250000Y-95250000D03*
D13*
%TO.P,Q1,2,B*%
%TO.N,Net-(Q1-B)*%
X95250000Y-93980000D03*
%TO.P,Q1,3,E*%
%TO.N,GND*%
X95250000Y-92710000D03*
%TD*%
D14*
%TO.P,J5,1*%
%TO.N,N/C*%
X71120000Y-93980000D03*
%TO.P,J5,2*%
X83820000Y-93980000D03*
%TO.P,J5,3*%
X80010000Y-96520000D03*
X80010000Y-91440000D03*
%TD*%
D15*
%TO.P,J2,1,Pin_1*%
%TO.N,unconnected-(J2-Pin_1-Pad1)*%
X103490000Y-78740000D03*
D16*
%TO.P,J2,2,Pin_2*%
%TO.N,GND*%
X100950000Y-78740000D03*
%TO.P,J2,3,Pin_3*%
%TO.N,unconnected-(J2-Pin_3-Pad3)*%
X98410000Y-78740000D03*
%TD*%
D15*
%TO.P,J1,1,Pin_1*%
%TO.N,unconnected-(J1-Pin_1-Pad1)*%
X85720000Y-78740000D03*
D16*
%TO.P,J1,2,Pin_2*%
%TO.N,unconnected-(J1-Pin_2-Pad2)*%
X83180000Y-78740000D03*
%TO.P,J1,3,Pin_3*%
%TO.N,unconnected-(J1-Pin_3-Pad3)*%
X80640000Y-78740000D03*
%TO.P,J1,4,Pin_4*%
%TO.N,unconnected-(J1-Pin_4-Pad4)*%
X78100000Y-78740000D03*
%TO.P,J1,5,Pin_5*%
%TO.N,unconnected-(J1-Pin_5-Pad5)*%
X75560000Y-78740000D03*
%TD*%
D17*
%TO.P,D2,1,K*%
%TO.N,Net-(D1-K)*%
X92710000Y-97790000D03*
D10*
%TO.P,D2,2,A*%
%TO.N,/lanc_rx*%
X85090000Y-97790000D03*
%TD*%
D18*
%TO.P,D3,1,RA*%
%TO.N,Net-(D3-RA)*%
X88265000Y-83820000D03*
D19*
%TO.P,D3,2,K*%
%TO.N,GND*%
X90805000Y-83820000D03*
%TO.P,D3,3,GA*%
%TO.N,Net-(D3-GA)*%
X93345000Y-83820000D03*
%TO.P,D3,4,BA*%
%TO.N,Net-(D3-BA)*%
X95885000Y-83820000D03*
%TD*%
D11*
%TO.P,R4,1,+*%
%TO.N,/Groen*%
X112395000Y-87630000D03*
D10*
%TO.P,R4,2,-*%
%TO.N,Net-(D3-GA)*%
X102235000Y-87630000D03*
%TD*%
D11*
%TO.P,R5,1,+*%
%TO.N,/Blauw*%
X112395000Y-85090000D03*
D10*
%TO.P,R5,2,-*%
%TO.N,Net-(D3-BA)*%
X102235000Y-85090000D03*
%TD*%
D18*
%TO.P,D1,1,K*%
%TO.N,Net-(D1-K)*%
X89535000Y-95250000D03*
D20*
%TO.P,D1,2,A*%
%TO.N,GND*%
X89535000Y-87630000D03*
%TD*%
D15*
%TO.P,J3,1,Pin_1*%
%TO.N,GND*%
X103505000Y-101600000D03*
D16*
%TO.P,J3,2,Pin_2*%
X100965000Y-101600000D03*
%TO.P,J3,3,Pin_3*%
%TO.N,unconnected-(J3-Pin_3-Pad3)*%
X98425000Y-101600000D03*
%TO.P,J3,4,Pin_4*%
%TO.N,unconnected-(J3-Pin_4-Pad4)*%
X95885000Y-101600000D03*
%TO.P,J3,5,Pin_5*%
%TO.N,/Rood*%
X93345000Y-101600000D03*
%TO.P,J3,6,Pin_6*%
%TO.N,/Groen*%
X90805000Y-101600000D03*
%TO.P,J3,7,Pin_7*%
%TO.N,/Blauw*%
X88265000Y-101600000D03*
%TO.P,J3,8,Pin_8*%
%TO.N,/lanc_rx*%
X85725000Y-101600000D03*
%TO.P,J3,9,Pin_9*%
%TO.N,/lanc_tx*%
X83185000Y-101600000D03*
%TO.P,J3,10,Pin_10*%
%TO.N,GND*%
X80645000Y-101600000D03*
%TO.P,J3,11,Pin_11*%
X78105000Y-101600000D03*
%TO.P,J3,12,Pin_12*%
%TO.N,unconnected-(J3-Pin_12-Pad12)*%
X75565000Y-101600000D03*
%TD*%
D14*
%TO.P,J4,1*%
%TO.N,N/C*%
X71120000Y-86360000D03*
%TO.P,J4,2*%
X83820000Y-86360000D03*
%TO.P,J4,3*%
X80010000Y-88900000D03*
X80010000Y-83820000D03*
%TD*%
M02*
