%TF.GenerationSoftware,KiCad,Pcbnew,8.0.2*%
%TF.CreationDate,2024-06-05T00:37:09+02:00*%
%TF.ProjectId,tally_lanc,74616c6c-795f-46c6-916e-632e6b696361,rev?*%
%TF.SameCoordinates,Original*%
%TF.FileFunction,Copper,L2,Bot*%
%TF.FilePolarity,Positive*%
%FSLAX46Y46*%
G04 Gerber Fmt 4.6, Leading zero omitted, Abs format (unit mm)*
G04 Created by KiCad (PCBNEW 8.0.2) date 2024-06-05 00:37:09*
%MOMM*%
%LPD*%
G01*
G04 APERTURE LIST*
%TA.AperFunction,ComponentPad*%
%ADD10O,1.600000X1.600000*%
%TD*%
%TA.AperFunction,ComponentPad*%
%ADD11C,1.600000*%
%TD*%
%TA.AperFunction,ComponentPad*%
%ADD12R,1.500000X1.050000*%
%TD*%
%TA.AperFunction,ComponentPad*%
%ADD13O,1.500000X1.050000*%
%TD*%
%TA.AperFunction,ComponentPad*%
%ADD14C,1.524000*%
%TD*%
%TA.AperFunction,ComponentPad*%
%ADD15R,1.700000X1.700000*%
%TD*%
%TA.AperFunction,ComponentPad*%
%ADD16O,1.700000X1.700000*%
%TD*%
%TA.AperFunction,ComponentPad*%
%ADD17R,1.600000X1.600000*%
%TD*%
%TA.AperFunction,ComponentPad*%
%ADD18R,1.800000X1.800000*%
%TD*%
%TA.AperFunction,ComponentPad*%
%ADD19C,1.800000*%
%TD*%
%TA.AperFunction,ComponentPad*%
%ADD20O,1.800000X1.800000*%
%TD*%
%TA.AperFunction,Conductor*%
%ADD21C,0.200000*%
%TD*%
G04 APERTURE END LIST*
D10*
%TO.P,R3,2,-*%
%TO.N,Net-(D3-RA)*%
X102235000Y-90170000D03*
D11*
%TO.P,R3,1,+*%
%TO.N,/Rood*%
X112395000Y-90170000D03*
%TD*%
%TO.P,R2,1,+*%
%TO.N,/lanc_tx*%
X99060000Y-86360000D03*
D10*
%TO.P,R2,2,-*%
%TO.N,Net-(Q1-B)*%
X99060000Y-96520000D03*
%TD*%
D11*
%TO.P,R1,1,+*%
%TO.N,Net-(R1-+)*%
X86360000Y-95885000D03*
D10*
%TO.P,R1,2,-*%
%TO.N,Net-(D1-K)*%
X86360000Y-85725000D03*
%TD*%
D12*
%TO.P,Q1,1,C*%
%TO.N,Net-(D1-K)*%
X95250000Y-95250000D03*
D13*
%TO.P,Q1,2,B*%
%TO.N,Net-(Q1-B)*%
X95250000Y-93980000D03*
%TO.P,Q1,3,E*%
%TO.N,GND*%
X95250000Y-92710000D03*
%TD*%
D14*
%TO.P,J5,1*%
%TO.N,N/C*%
X71120000Y-93980000D03*
%TO.P,J5,2*%
X83820000Y-93980000D03*
%TO.P,J5,3*%
X80010000Y-96520000D03*
X80010000Y-91440000D03*
%TD*%
D15*
%TO.P,J2,1,Pin_1*%
%TO.N,unconnected-(J2-Pin_1-Pad1)*%
X103490000Y-78740000D03*
D16*
%TO.P,J2,2,Pin_2*%
%TO.N,GND*%
X100950000Y-78740000D03*
%TO.P,J2,3,Pin_3*%
%TO.N,unconnected-(J2-Pin_3-Pad3)*%
X98410000Y-78740000D03*
%TD*%
D15*
%TO.P,J1,1,Pin_1*%
%TO.N,unconnected-(J1-Pin_1-Pad1)*%
X85720000Y-78740000D03*
D16*
%TO.P,J1,2,Pin_2*%
%TO.N,unconnected-(J1-Pin_2-Pad2)*%
X83180000Y-78740000D03*
%TO.P,J1,3,Pin_3*%
%TO.N,unconnected-(J1-Pin_3-Pad3)*%
X80640000Y-78740000D03*
%TO.P,J1,4,Pin_4*%
%TO.N,unconnected-(J1-Pin_4-Pad4)*%
X78100000Y-78740000D03*
%TO.P,J1,5,Pin_5*%
%TO.N,unconnected-(J1-Pin_5-Pad5)*%
X75560000Y-78740000D03*
%TD*%
D17*
%TO.P,D2,1,K*%
%TO.N,Net-(D1-K)*%
X92710000Y-97790000D03*
D10*
%TO.P,D2,2,A*%
%TO.N,/lanc_rx*%
X85090000Y-97790000D03*
%TD*%
D18*
%TO.P,D3,1,RA*%
%TO.N,Net-(D3-RA)*%
X88265000Y-83820000D03*
D19*
%TO.P,D3,2,K*%
%TO.N,GND*%
X90805000Y-83820000D03*
%TO.P,D3,3,GA*%
%TO.N,Net-(D3-GA)*%
X93345000Y-83820000D03*
%TO.P,D3,4,BA*%
%TO.N,Net-(D3-BA)*%
X95885000Y-83820000D03*
%TD*%
D11*
%TO.P,R4,1,+*%
%TO.N,/Groen*%
X112395000Y-87630000D03*
D10*
%TO.P,R4,2,-*%
%TO.N,Net-(D3-GA)*%
X102235000Y-87630000D03*
%TD*%
D11*
%TO.P,R5,1,+*%
%TO.N,/Blauw*%
X112395000Y-85090000D03*
D10*
%TO.P,R5,2,-*%
%TO.N,Net-(D3-BA)*%
X102235000Y-85090000D03*
%TD*%
D18*
%TO.P,D1,1,K*%
%TO.N,Net-(D1-K)*%
X89535000Y-95250000D03*
D20*
%TO.P,D1,2,A*%
%TO.N,GND*%
X89535000Y-87630000D03*
%TD*%
D15*
%TO.P,J3,1,Pin_1*%
%TO.N,GND*%
X103505000Y-101600000D03*
D16*
%TO.P,J3,2,Pin_2*%
X100965000Y-101600000D03*
%TO.P,J3,3,Pin_3*%
%TO.N,unconnected-(J3-Pin_3-Pad3)*%
X98425000Y-101600000D03*
%TO.P,J3,4,Pin_4*%
%TO.N,unconnected-(J3-Pin_4-Pad4)*%
X95885000Y-101600000D03*
%TO.P,J3,5,Pin_5*%
%TO.N,/Rood*%
X93345000Y-101600000D03*
%TO.P,J3,6,Pin_6*%
%TO.N,/Groen*%
X90805000Y-101600000D03*
%TO.P,J3,7,Pin_7*%
%TO.N,/Blauw*%
X88265000Y-101600000D03*
%TO.P,J3,8,Pin_8*%
%TO.N,/lanc_rx*%
X85725000Y-101600000D03*
%TO.P,J3,9,Pin_9*%
%TO.N,/lanc_tx*%
X83185000Y-101600000D03*
%TO.P,J3,10,Pin_10*%
%TO.N,GND*%
X80645000Y-101600000D03*
%TO.P,J3,11,Pin_11*%
X78105000Y-101600000D03*
%TO.P,J3,12,Pin_12*%
%TO.N,unconnected-(J3-Pin_12-Pad12)*%
X75565000Y-101600000D03*
%TD*%
D14*
%TO.P,J4,1*%
%TO.N,N/C*%
X71120000Y-86360000D03*
%TO.P,J4,2*%
X83820000Y-86360000D03*
%TO.P,J4,3*%
X80010000Y-88900000D03*
X80010000Y-83820000D03*
%TD*%
D21*
%TO.N,/Blauw*%
X109855000Y-87630000D02*
X112395000Y-85090000D01*
X109855000Y-90170000D02*
X109855000Y-87630000D01*
X100965000Y-99060000D02*
X109855000Y-90170000D01*
X89535000Y-99060000D02*
X100965000Y-99060000D01*
X88265000Y-101600000D02*
X88265000Y-100330000D01*
X88265000Y-100330000D02*
X89535000Y-99060000D01*
%TO.N,/Groen*%
X110490000Y-90805000D02*
X110490000Y-89535000D01*
X91440000Y-99695000D02*
X101600000Y-99695000D01*
X90805000Y-100330000D02*
X91440000Y-99695000D01*
X90805000Y-101600000D02*
X90805000Y-100330000D01*
X101600000Y-99695000D02*
X110490000Y-90805000D01*
X110490000Y-89535000D02*
X112395000Y-87630000D01*
%TO.N,/Rood*%
X102235000Y-100330000D02*
X112395000Y-90170000D01*
X93980000Y-100330000D02*
X102235000Y-100330000D01*
X93345000Y-100965000D02*
X93980000Y-100330000D01*
X93345000Y-101600000D02*
X93345000Y-100965000D01*
%TO.N,Net-(D3-RA)*%
X103505000Y-84455000D02*
X103505000Y-88900000D01*
X103505000Y-88900000D02*
X102235000Y-90170000D01*
X89535000Y-82550000D02*
X97155000Y-82550000D01*
X97155000Y-82550000D02*
X97790000Y-83185000D01*
X88265000Y-83820000D02*
X89535000Y-82550000D01*
X97790000Y-83185000D02*
X102235000Y-83185000D01*
X102235000Y-83185000D02*
X103505000Y-84455000D01*
%TO.N,Net-(D3-BA)*%
X100965000Y-85090000D02*
X102235000Y-85090000D01*
X99695000Y-83820000D02*
X100965000Y-85090000D01*
X95885000Y-83820000D02*
X99695000Y-83820000D01*
%TO.N,Net-(D3-GA)*%
X94615000Y-85090000D02*
X93345000Y-83820000D01*
X99695000Y-85090000D02*
X94615000Y-85090000D01*
X102235000Y-87630000D02*
X99695000Y-85090000D01*
%TO.N,/lanc_rx*%
X85725000Y-99695000D02*
X85090000Y-99060000D01*
X85725000Y-101600000D02*
X85725000Y-99695000D01*
%TO.N,/lanc_tx*%
X100330000Y-87630000D02*
X99060000Y-86360000D01*
X101600000Y-91440000D02*
X100330000Y-90170000D01*
X100330000Y-90170000D02*
X100330000Y-87630000D01*
X102870000Y-91440000D02*
X101600000Y-91440000D01*
X104140000Y-90170000D02*
X102870000Y-91440000D01*
X104140000Y-83820000D02*
X104140000Y-90170000D01*
X102870000Y-82550000D02*
X104140000Y-83820000D01*
X97790000Y-81915000D02*
X98425000Y-82550000D01*
X98425000Y-82550000D02*
X102870000Y-82550000D01*
X88265000Y-82550000D02*
X88900000Y-81915000D01*
X79375000Y-82550000D02*
X88265000Y-82550000D01*
X78740000Y-83185000D02*
X79375000Y-82550000D01*
X79375000Y-97790000D02*
X78740000Y-97155000D01*
X88900000Y-81915000D02*
X97790000Y-81915000D01*
X81280000Y-97790000D02*
X79375000Y-97790000D01*
X78740000Y-97155000D02*
X78740000Y-83185000D01*
%TO.N,/lanc_rx*%
X85090000Y-99060000D02*
X85090000Y-97790000D01*
%TO.N,Net-(D1-K)*%
X89535000Y-95250000D02*
X95250000Y-95250000D01*
X86360000Y-92075000D02*
X89535000Y-95250000D01*
X86360000Y-85725000D02*
X86360000Y-92075000D01*
X95250000Y-95250000D02*
X92710000Y-95250000D01*
X92710000Y-97790000D02*
X92710000Y-95250000D01*
X84455000Y-83820000D02*
X83820000Y-83820000D01*
X86360000Y-85725000D02*
X84455000Y-83820000D01*
X80010000Y-83820000D02*
X83820000Y-83820000D01*
%TO.N,Net-(R1-+)*%
X84455000Y-95885000D02*
X86360000Y-95885000D01*
X83820000Y-95250000D02*
X84455000Y-95885000D01*
X83820000Y-95250000D02*
X83820000Y-93980000D01*
X83820000Y-93345000D02*
X83820000Y-95250000D01*
X83820000Y-93980000D02*
X83820000Y-93345000D01*
X86360000Y-95885000D02*
X86360000Y-96520000D01*
%TO.N,Net-(D1-K)*%
X92075000Y-98425000D02*
X93345000Y-98425000D01*
%TO.N,Net-(R1-+)*%
X83820000Y-93980000D02*
X83820000Y-86360000D01*
%TO.N,Net-(Q1-B)*%
X96520000Y-93980000D02*
X99060000Y-96520000D01*
X95250000Y-93980000D02*
X96520000Y-93980000D01*
%TO.N,Net-(D1-K)*%
X80010000Y-91440000D02*
X80010000Y-96520000D01*
X80010000Y-88900000D02*
X80010000Y-91440000D01*
X80010000Y-83820000D02*
X80010000Y-88900000D01*
%TD*%
%TA.AperFunction,Conductor*%
%TO.N,GND*%
G36*
X74301110Y-77990185D02*
G01*
X74346865Y-78042989D01*
X74356809Y-78112147D01*
X74346453Y-78146905D01*
X74286097Y-78276335D01*
X74286094Y-78276344D01*
X74224938Y-78504586D01*
X74224936Y-78504596D01*
X74204341Y-78739999D01*
X74204341Y-78740000D01*
X74224936Y-78975403D01*
X74224938Y-78975413D01*
X74286094Y-79203655D01*
X74286096Y-79203659D01*
X74286097Y-79203663D01*
X74366004Y-79375023D01*
X74385965Y-79417830D01*
X74385967Y-79417834D01*
X74494281Y-79572521D01*
X74521505Y-79611401D01*
X74688599Y-79778495D01*
X74785384Y-79846265D01*
X74882165Y-79914032D01*
X74882167Y-79914033D01*
X74882170Y-79914035D01*
X75096337Y-80013903D01*
X75324592Y-80075063D01*
X75501034Y-80090500D01*
X75559999Y-80095659D01*
X75560000Y-80095659D01*
X75560001Y-80095659D01*
X75618966Y-80090500D01*
X75795408Y-80075063D01*
X76023663Y-80013903D01*
X76237830Y-79914035D01*
X76431401Y-79778495D01*
X76598495Y-79611401D01*
X76728425Y-79425842D01*
X76783002Y-79382217D01*
X76852500Y-79375023D01*
X76914855Y-79406546D01*
X76931575Y-79425842D01*
X77061500Y-79611395D01*
X77061505Y-79611401D01*
X77228599Y-79778495D01*
X77325384Y-79846265D01*
X77422165Y-79914032D01*
X77422167Y-79914033D01*
X77422170Y-79914035D01*
X77636337Y-80013903D01*
X77864592Y-80075063D01*
X78041034Y-80090500D01*
X78099999Y-80095659D01*
X78100000Y-80095659D01*
X78100001Y-80095659D01*
X78158966Y-80090500D01*
X78335408Y-80075063D01*
X78563663Y-80013903D01*
X78777830Y-79914035D01*
X78971401Y-79778495D01*
X79138495Y-79611401D01*
X79268425Y-79425842D01*
X79323002Y-79382217D01*
X79392500Y-79375023D01*
X79454855Y-79406546D01*
X79471575Y-79425842D01*
X79601500Y-79611395D01*
X79601505Y-79611401D01*
X79768599Y-79778495D01*
X79865384Y-79846265D01*
X79962165Y-79914032D01*
X79962167Y-79914033D01*
X79962170Y-79914035D01*
X80176337Y-80013903D01*
X80404592Y-80075063D01*
X80581034Y-80090500D01*
X80639999Y-80095659D01*
X80640000Y-80095659D01*
X80640001Y-80095659D01*
X80698966Y-80090500D01*
X80875408Y-80075063D01*
X81103663Y-80013903D01*
X81317830Y-79914035D01*
X81511401Y-79778495D01*
X81678495Y-79611401D01*
X81808425Y-79425842D01*
X81863002Y-79382217D01*
X81932500Y-79375023D01*
X81994855Y-79406546D01*
X82011575Y-79425842D01*
X82141500Y-79611395D01*
X82141505Y-79611401D01*
X82308599Y-79778495D01*
X82405384Y-79846265D01*
X82502165Y-79914032D01*
X82502167Y-79914033D01*
X82502170Y-79914035D01*
X82716337Y-80013903D01*
X82944592Y-80075063D01*
X83121034Y-80090500D01*
X83179999Y-80095659D01*
X83180000Y-80095659D01*
X83180001Y-80095659D01*
X83238966Y-80090500D01*
X83415408Y-80075063D01*
X83643663Y-80013903D01*
X83857830Y-79914035D01*
X84051401Y-79778495D01*
X84173329Y-79656566D01*
X84234648Y-79623084D01*
X84304340Y-79628068D01*
X84360274Y-79669939D01*
X84377189Y-79700917D01*
X84426202Y-79832328D01*
X84426206Y-79832335D01*
X84512452Y-79947544D01*
X84512455Y-79947547D01*
X84627664Y-80033793D01*
X84627671Y-80033797D01*
X84762517Y-80084091D01*
X84762516Y-80084091D01*
X84769444Y-80084835D01*
X84822127Y-80090500D01*
X86617872Y-80090499D01*
X86677483Y-80084091D01*
X86812331Y-80033796D01*
X86927546Y-79947546D01*
X87013796Y-79832331D01*
X87064091Y-79697483D01*
X87070500Y-79637873D01*
X87070499Y-78094499D01*
X87090184Y-78027461D01*
X87142987Y-77981706D01*
X87194499Y-77970500D01*
X97084071Y-77970500D01*
X97151110Y-77990185D01*
X97196865Y-78042989D01*
X97206809Y-78112147D01*
X97196453Y-78146905D01*
X97136097Y-78276335D01*
X97136094Y-78276344D01*
X97074938Y-78504586D01*
X97074936Y-78504596D01*
X97054341Y-78739999D01*
X97054341Y-78740000D01*
X97074936Y-78975403D01*
X97074938Y-78975413D01*
X97136094Y-79203655D01*
X97136096Y-79203659D01*
X97136097Y-79203663D01*
X97216004Y-79375023D01*
X97235965Y-79417830D01*
X97235967Y-79417834D01*
X97344281Y-79572521D01*
X97371505Y-79611401D01*
X97538599Y-79778495D01*
X97635384Y-79846265D01*
X97732165Y-79914032D01*
X97732167Y-79914033D01*
X97732170Y-79914035D01*
X97946337Y-80013903D01*
X98174592Y-80075063D01*
X98351034Y-80090500D01*
X98409999Y-80095659D01*
X98410000Y-80095659D01*
X98410001Y-80095659D01*
X98468966Y-80090500D01*
X98645408Y-80075063D01*
X98873663Y-80013903D01*
X99087830Y-79914035D01*
X99281401Y-79778495D01*
X99448495Y-79611401D01*
X99578730Y-79425405D01*
X99633307Y-79381781D01*
X99702805Y-79374587D01*
X99765160Y-79406110D01*
X99781879Y-79425405D01*
X99911890Y-79611078D01*
X100078917Y-79778105D01*
X100272421Y-79913600D01*
X100486507Y-80013429D01*
X100486516Y-80013433D01*
X100700000Y-80070634D01*
X100700000Y-79173012D01*
X100757007Y-79205925D01*
X100884174Y-79240000D01*
X101015826Y-79240000D01*
X101142993Y-79205925D01*
X101200000Y-79173012D01*
X101200000Y-80070633D01*
X101413483Y-80013433D01*
X101413492Y-80013429D01*
X101627578Y-79913600D01*
X101821078Y-79778108D01*
X101943133Y-79656053D01*
X102004456Y-79622568D01*
X102074148Y-79627552D01*
X102130082Y-79669423D01*
X102146997Y-79700401D01*
X102196202Y-79832328D01*
X102196206Y-79832335D01*
X102282452Y-79947544D01*
X102282455Y-79947547D01*
X102397664Y-80033793D01*
X102397671Y-80033797D01*
X102532517Y-80084091D01*
X102532516Y-80084091D01*
X102539444Y-80084835D01*
X102592127Y-80090500D01*
X104387872Y-80090499D01*
X104447483Y-80084091D01*
X104582331Y-80033796D01*
X104697546Y-79947546D01*
X104783796Y-79832331D01*
X104834091Y-79697483D01*
X104840500Y-79637873D01*
X104840499Y-78094499D01*
X104860184Y-78027461D01*
X104912987Y-77981706D01*
X104964499Y-77970500D01*
X118755500Y-77970500D01*
X118822539Y-77990185D01*
X118868294Y-78042989D01*
X118879500Y-78094500D01*
X118879500Y-102245500D01*
X118859815Y-102312539D01*
X118807011Y-102358294D01*
X118755500Y-102369500D01*
X104979000Y-102369500D01*
X104911961Y-102349815D01*
X104866206Y-102297011D01*
X104855000Y-102245500D01*
X104855000Y-101850000D01*
X103938012Y-101850000D01*
X103970925Y-101792993D01*
X104005000Y-101665826D01*
X104005000Y-101534174D01*
X103970925Y-101407007D01*
X103938012Y-101350000D01*
X104855000Y-101350000D01*
X104855000Y-100702172D01*
X104854999Y-100702155D01*
X104848598Y-100642627D01*
X104848596Y-100642620D01*
X104798354Y-100507913D01*
X104798350Y-100507906D01*
X104712190Y-100392812D01*
X104712187Y-100392809D01*
X104597093Y-100306649D01*
X104597086Y-100306645D01*
X104462379Y-100256403D01*
X104462372Y-100256401D01*
X104402844Y-100250000D01*
X103755000Y-100250000D01*
X103755000Y-101166988D01*
X103697993Y-101134075D01*
X103570826Y-101100000D01*
X103439174Y-101100000D01*
X103312007Y-101134075D01*
X103255000Y-101166988D01*
X103255000Y-100210596D01*
X103274685Y-100143557D01*
X103291319Y-100122915D01*
X107340732Y-96073502D01*
X111952295Y-91461939D01*
X112013616Y-91428456D01*
X112072067Y-91429846D01*
X112168308Y-91455635D01*
X112330230Y-91469801D01*
X112394998Y-91475468D01*
X112395000Y-91475468D01*
X112395002Y-91475468D01*
X112451673Y-91470509D01*
X112621692Y-91455635D01*
X112841496Y-91396739D01*
X113047734Y-91300568D01*
X113234139Y-91170047D01*
X113395047Y-91009139D01*
X113525568Y-90822734D01*
X113621739Y-90616496D01*
X113680635Y-90396692D01*
X113700468Y-90170000D01*
X113680635Y-89943308D01*
X113621739Y-89723504D01*
X113525568Y-89517266D01*
X113395047Y-89330861D01*
X113395045Y-89330858D01*
X113234141Y-89169954D01*
X113047734Y-89039432D01*
X113047728Y-89039429D01*
X112989725Y-89012382D01*
X112937285Y-88966210D01*
X112918133Y-88899017D01*
X112938348Y-88832135D01*
X112989725Y-88787618D01*
X113047734Y-88760568D01*
X113234139Y-88630047D01*
X113395047Y-88469139D01*
X113525568Y-88282734D01*
X113621739Y-88076496D01*
X113680635Y-87856692D01*
X113700468Y-87630000D01*
X113680635Y-87403308D01*
X113621739Y-87183504D01*
X113525568Y-86977266D01*
X113395047Y-86790861D01*
X113395045Y-86790858D01*
X113234141Y-86629954D01*
X113047734Y-86499432D01*
X113047728Y-86499429D01*
X112989725Y-86472382D01*
X112937285Y-86426210D01*
X112918133Y-86359017D01*
X112938348Y-86292135D01*
X112989725Y-86247618D01*
X113047734Y-86220568D01*
X113234139Y-86090047D01*
X113395047Y-85929139D01*
X113525568Y-85742734D01*
X113621739Y-85536496D01*
X113680635Y-85316692D01*
X113700468Y-85090000D01*
X113699378Y-85077546D01*
X113684171Y-84903729D01*
X113680635Y-84863308D01*
X113621739Y-84643504D01*
X113525568Y-84437266D01*
X113395047Y-84250861D01*
X113395045Y-84250858D01*
X113234141Y-84089954D01*
X113047734Y-83959432D01*
X113047732Y-83959431D01*
X112841497Y-83863261D01*
X112841488Y-83863258D01*
X112621697Y-83804366D01*
X112621693Y-83804365D01*
X112621692Y-83804365D01*
X112621691Y-83804364D01*
X112621686Y-83804364D01*
X112395002Y-83784532D01*
X112394998Y-83784532D01*
X112168313Y-83804364D01*
X112168302Y-83804366D01*
X111948511Y-83863258D01*
X111948502Y-83863261D01*
X111742267Y-83959431D01*
X111742265Y-83959432D01*
X111555858Y-84089954D01*
X111394954Y-84250858D01*
X111264432Y-84437265D01*
X111264431Y-84437267D01*
X111168261Y-84643502D01*
X111168258Y-84643511D01*
X111109366Y-84863302D01*
X111109364Y-84863313D01*
X111089532Y-85089998D01*
X111089532Y-85090001D01*
X111109364Y-85316686D01*
X111109366Y-85316697D01*
X111135152Y-85412931D01*
X111133489Y-85482781D01*
X111103058Y-85532705D01*
X109486286Y-87149478D01*
X109374481Y-87261282D01*
X109374475Y-87261290D01*
X109334330Y-87330825D01*
X109334330Y-87330826D01*
X109295423Y-87398215D01*
X109254499Y-87550943D01*
X109254499Y-87550945D01*
X109254499Y-87719046D01*
X109254500Y-87719059D01*
X109254500Y-89869902D01*
X109234815Y-89936941D01*
X109218181Y-89957583D01*
X100752584Y-98423181D01*
X100691261Y-98456666D01*
X100664903Y-98459500D01*
X94134500Y-98459500D01*
X94067461Y-98439815D01*
X94021706Y-98387011D01*
X94010500Y-98335500D01*
X94010499Y-96942129D01*
X94010498Y-96942123D01*
X94010497Y-96942116D01*
X94004091Y-96882517D01*
X93969567Y-96789954D01*
X93953797Y-96747671D01*
X93953793Y-96747664D01*
X93867547Y-96632455D01*
X93867544Y-96632452D01*
X93752335Y-96546206D01*
X93752328Y-96546202D01*
X93617482Y-96495908D01*
X93617483Y-96495908D01*
X93557883Y-96489501D01*
X93557881Y-96489500D01*
X93557873Y-96489500D01*
X93557865Y-96489500D01*
X93434500Y-96489500D01*
X93367461Y-96469815D01*
X93321706Y-96417011D01*
X93310500Y-96365500D01*
X93310500Y-95974500D01*
X93330185Y-95907461D01*
X93382989Y-95861706D01*
X93434500Y-95850500D01*
X93907885Y-95850500D01*
X93974924Y-95870185D01*
X94020679Y-95922989D01*
X94024067Y-95931167D01*
X94056202Y-96017328D01*
X94056206Y-96017335D01*
X94142452Y-96132544D01*
X94142455Y-96132547D01*
X94257664Y-96218793D01*
X94257671Y-96218797D01*
X94392517Y-96269091D01*
X94392516Y-96269091D01*
X94399444Y-96269835D01*
X94452127Y-96275500D01*
X96047872Y-96275499D01*
X96107483Y-96269091D01*
X96242331Y-96218796D01*
X96357546Y-96132546D01*
X96443796Y-96017331D01*
X96494091Y-95882483D01*
X96500500Y-95822873D01*
X96500499Y-95109094D01*
X96520183Y-95042057D01*
X96572987Y-94996302D01*
X96642146Y-94986358D01*
X96705702Y-95015383D01*
X96712180Y-95021415D01*
X97768058Y-96077293D01*
X97801543Y-96138616D01*
X97800152Y-96197067D01*
X97774366Y-96293302D01*
X97774364Y-96293313D01*
X97754532Y-96519998D01*
X97754532Y-96520001D01*
X97774364Y-96746686D01*
X97774366Y-96746697D01*
X97833258Y-96966488D01*
X97833261Y-96966497D01*
X97929431Y-97172732D01*
X97929432Y-97172734D01*
X98059954Y-97359141D01*
X98220858Y-97520045D01*
X98220861Y-97520047D01*
X98407266Y-97650568D01*
X98613504Y-97746739D01*
X98833308Y-97805635D01*
X98995230Y-97819801D01*
X99059998Y-97825468D01*
X99060000Y-97825468D01*
X99060002Y-97825468D01*
X99116673Y-97820509D01*
X99286692Y-97805635D01*
X99506496Y-97746739D01*
X99712734Y-97650568D01*
X99899139Y-97520047D01*
X100060047Y-97359139D01*
X100190568Y-97172734D01*
X100286739Y-96966496D01*
X100345635Y-96746692D01*
X100363176Y-96546202D01*
X100365468Y-96520001D01*
X100365468Y-96519998D01*
X100351953Y-96365524D01*
X100345635Y-96293308D01*
X100286739Y-96073504D01*
X100190568Y-95867266D01*
X100060047Y-95680861D01*
X100060045Y-95680858D01*
X99899141Y-95519954D01*
X99712734Y-95389432D01*
X99712732Y-95389431D01*
X99506497Y-95293261D01*
X99506488Y-95293258D01*
X99286697Y-95234366D01*
X99286693Y-95234365D01*
X99286692Y-95234365D01*
X99286691Y-95234364D01*
X99286686Y-95234364D01*
X99060002Y-95214532D01*
X99059998Y-95214532D01*
X98833313Y-95234364D01*
X98833302Y-95234366D01*
X98737067Y-95260152D01*
X98667217Y-95258489D01*
X98617293Y-95228058D01*
X97007590Y-93618355D01*
X97007588Y-93618352D01*
X96888717Y-93499481D01*
X96888716Y-93499480D01*
X96801904Y-93449360D01*
X96801904Y-93449359D01*
X96801900Y-93449358D01*
X96751785Y-93420423D01*
X96599057Y-93379499D01*
X96491887Y-93379499D01*
X96424848Y-93359814D01*
X96379093Y-93307010D01*
X96369149Y-93237852D01*
X96381162Y-93201211D01*
X96381013Y-93201149D01*
X96381828Y-93199179D01*
X96382528Y-93197047D01*
X96383345Y-93195516D01*
X96460609Y-93008983D01*
X96460612Y-93008974D01*
X96470353Y-92960000D01*
X95615866Y-92960000D01*
X95591674Y-92957617D01*
X95576004Y-92954500D01*
X95576003Y-92954500D01*
X95535830Y-92954500D01*
X95550075Y-92940255D01*
X95599444Y-92854745D01*
X95625000Y-92759370D01*
X95625000Y-92660630D01*
X95599444Y-92565255D01*
X95550075Y-92479745D01*
X95530330Y-92460000D01*
X96470353Y-92460000D01*
X96460612Y-92411025D01*
X96460609Y-92411016D01*
X96383347Y-92224486D01*
X96383340Y-92224473D01*
X96271170Y-92056600D01*
X96271167Y-92056596D01*
X96128403Y-91913832D01*
X96128399Y-91913829D01*
X95960526Y-91801659D01*
X95960513Y-91801652D01*
X95773983Y-91724390D01*
X95773974Y-91724387D01*
X95575958Y-91685000D01*
X95500000Y-91685000D01*
X95500000Y-92429670D01*
X95480255Y-92409925D01*
X95394745Y-92360556D01*
X95299370Y-92335000D01*
X95200630Y-92335000D01*
X95105255Y-92360556D01*
X95019745Y-92409925D01*
X95000000Y-92429670D01*
X95000000Y-91685000D01*
X94924041Y-91685000D01*
X94726025Y-91724387D01*
X94726016Y-91724390D01*
X94539486Y-91801652D01*
X94539473Y-91801659D01*
X94371600Y-91913829D01*
X94371596Y-91913832D01*
X94228832Y-92056596D01*
X94228829Y-92056600D01*
X94116659Y-92224473D01*
X94116652Y-92224486D01*
X94039390Y-92411016D01*
X94039387Y-92411025D01*
X94029647Y-92460000D01*
X94969670Y-92460000D01*
X94949925Y-92479745D01*
X94900556Y-92565255D01*
X94875000Y-92660630D01*
X94875000Y-92759370D01*
X94900556Y-92854745D01*
X94949925Y-92940255D01*
X94964170Y-92954500D01*
X94923997Y-92954500D01*
X94923996Y-92954500D01*
X94908326Y-92957617D01*
X94884134Y-92960000D01*
X94029647Y-92960000D01*
X94039387Y-93008974D01*
X94039390Y-93008983D01*
X94116652Y-93195513D01*
X94116659Y-93195526D01*
X94170203Y-93275659D01*
X94191081Y-93342336D01*
X94172597Y-93409716D01*
X94170204Y-93413439D01*
X94116214Y-93494243D01*
X94038909Y-93680872D01*
X94038907Y-93680880D01*
X93999500Y-93878992D01*
X93999500Y-94081007D01*
X94038907Y-94279119D01*
X94038909Y-94279127D01*
X94072325Y-94359800D01*
X94079794Y-94429270D01*
X94060038Y-94474660D01*
X94060454Y-94474887D01*
X94057919Y-94479528D01*
X94057037Y-94481556D01*
X94056206Y-94482665D01*
X94056202Y-94482672D01*
X94024067Y-94568833D01*
X93982196Y-94624767D01*
X93916732Y-94649184D01*
X93907885Y-94649500D01*
X91059499Y-94649500D01*
X90992460Y-94629815D01*
X90946705Y-94577011D01*
X90935499Y-94525500D01*
X90935499Y-94302129D01*
X90935498Y-94302123D01*
X90933025Y-94279119D01*
X90929091Y-94242517D01*
X90913259Y-94200070D01*
X90878797Y-94107671D01*
X90878793Y-94107664D01*
X90792547Y-93992455D01*
X90792544Y-93992452D01*
X90677335Y-93906206D01*
X90677328Y-93906202D01*
X90542482Y-93855908D01*
X90542483Y-93855908D01*
X90482883Y-93849501D01*
X90482881Y-93849500D01*
X90482873Y-93849500D01*
X90482865Y-93849500D01*
X89035097Y-93849500D01*
X88968058Y-93829815D01*
X88947416Y-93813181D01*
X86996819Y-91862584D01*
X86963334Y-91801261D01*
X86960500Y-91774903D01*
X86960500Y-87380000D01*
X88154117Y-87380000D01*
X89159722Y-87380000D01*
X89115667Y-87456306D01*
X89085000Y-87570756D01*
X89085000Y-87689244D01*
X89115667Y-87803694D01*
X89159722Y-87880000D01*
X88154117Y-87880000D01*
X88206317Y-88086135D01*
X88299516Y-88298609D01*
X88426414Y-88492842D01*
X88583558Y-88663545D01*
X88583562Y-88663548D01*
X88766644Y-88806047D01*
X88766648Y-88806050D01*
X88970697Y-88916476D01*
X88970706Y-88916479D01*
X89190139Y-88991811D01*
X89284999Y-89007640D01*
X89285000Y-89007639D01*
X89285000Y-88005277D01*
X89361306Y-88049333D01*
X89475756Y-88080000D01*
X89594244Y-88080000D01*
X89708694Y-88049333D01*
X89785000Y-88005277D01*
X89785000Y-89007640D01*
X89879860Y-88991811D01*
X90099293Y-88916479D01*
X90099302Y-88916476D01*
X90303351Y-88806050D01*
X90303355Y-88806047D01*
X90486437Y-88663548D01*
X90486441Y-88663545D01*
X90643585Y-88492842D01*
X90770483Y-88298609D01*
X90863682Y-88086135D01*
X90915883Y-87880000D01*
X89910278Y-87880000D01*
X89954333Y-87803694D01*
X89985000Y-87689244D01*
X89985000Y-87570756D01*
X89954333Y-87456306D01*
X89910278Y-87380000D01*
X90915883Y-87380000D01*
X90863682Y-87173864D01*
X90770483Y-86961390D01*
X90643585Y-86767157D01*
X90486441Y-86596454D01*
X90486437Y-86596451D01*
X90303355Y-86453952D01*
X90303351Y-86453949D01*
X90099302Y-86343523D01*
X90099293Y-86343520D01*
X89879861Y-86268188D01*
X89785000Y-86252359D01*
X89785000Y-87254722D01*
X89708694Y-87210667D01*
X89594244Y-87180000D01*
X89475756Y-87180000D01*
X89361306Y-87210667D01*
X89285000Y-87254722D01*
X89285000Y-86252359D01*
X89284999Y-86252359D01*
X89190138Y-86268188D01*
X88970706Y-86343520D01*
X88970697Y-86343523D01*
X88766648Y-86453949D01*
X88766644Y-86453952D01*
X88583562Y-86596451D01*
X88583558Y-86596454D01*
X88426414Y-86767157D01*
X88299516Y-86961390D01*
X88206317Y-87173864D01*
X88154117Y-87380000D01*
X86960500Y-87380000D01*
X86960500Y-86956692D01*
X86980185Y-86889653D01*
X87013374Y-86855119D01*
X87199139Y-86725047D01*
X87360047Y-86564139D01*
X87490568Y-86377734D01*
X87586739Y-86171496D01*
X87645635Y-85951692D01*
X87662634Y-85757384D01*
X87665468Y-85725001D01*
X87665468Y-85724998D01*
X87656338Y-85620641D01*
X87645635Y-85498308D01*
X87631842Y-85446833D01*
X87613022Y-85376592D01*
X87614685Y-85306742D01*
X87653848Y-85248880D01*
X87718077Y-85221376D01*
X87732797Y-85220499D01*
X89212871Y-85220499D01*
X89212872Y-85220499D01*
X89272483Y-85214091D01*
X89407331Y-85163796D01*
X89522546Y-85077546D01*
X89608796Y-84962331D01*
X89659091Y-84827483D01*
X89665500Y-84767873D01*
X89665499Y-84657304D01*
X89685183Y-84590268D01*
X89701818Y-84569626D01*
X90362861Y-83908583D01*
X90385667Y-83993694D01*
X90444910Y-84096306D01*
X90528694Y-84180090D01*
X90631306Y-84239333D01*
X90716414Y-84262138D01*
X90006201Y-84972351D01*
X90036649Y-84996050D01*
X90240697Y-85106476D01*
X90240706Y-85106479D01*
X90460139Y-85181811D01*
X90688993Y-85220000D01*
X90921007Y-85220000D01*
X91149860Y-85181811D01*
X91369293Y-85106479D01*
X91369301Y-85106476D01*
X91573355Y-84996047D01*
X91603797Y-84972351D01*
X91603798Y-84972350D01*
X90893585Y-84262137D01*
X90978694Y-84239333D01*
X91081306Y-84180090D01*
X91165090Y-84096306D01*
X91224333Y-83993694D01*
X91247138Y-83908585D01*
X91956185Y-84617632D01*
X91970891Y-84595125D01*
X92024037Y-84549768D01*
X92093268Y-84540344D01*
X92156604Y-84569846D01*
X92178509Y-84595124D01*
X92219135Y-84657308D01*
X92236021Y-84683153D01*
X92393216Y-84853913D01*
X92393219Y-84853915D01*
X92393222Y-84853918D01*
X92576365Y-84996464D01*
X92576371Y-84996468D01*
X92576374Y-84996470D01*
X92592698Y-85005304D01*
X92779652Y-85106479D01*
X92780497Y-85106936D01*
X92894487Y-85146068D01*
X93000015Y-85182297D01*
X93000017Y-85182297D01*
X93000019Y-85182298D01*
X93228951Y-85220500D01*
X93228952Y-85220500D01*
X93461048Y-85220500D01*
X93461049Y-85220500D01*
X93689981Y-85182298D01*
X93741897Y-85164474D01*
X93811693Y-85161324D01*
X93869840Y-85194075D01*
X94130139Y-85454374D01*
X94130149Y-85454385D01*
X94134479Y-85458715D01*
X94134480Y-85458716D01*
X94246284Y-85570520D01*
X94333095Y-85620639D01*
X94333097Y-85620641D01*
X94360032Y-85636192D01*
X94383215Y-85649577D01*
X94535942Y-85690500D01*
X94535943Y-85690500D01*
X97742609Y-85690500D01*
X97809648Y-85710185D01*
X97855403Y-85762989D01*
X97865347Y-85832147D01*
X97854991Y-85866905D01*
X97833261Y-85913502D01*
X97833258Y-85913511D01*
X97774366Y-86133302D01*
X97774364Y-86133313D01*
X97754532Y-86359998D01*
X97754532Y-86360001D01*
X97774364Y-86586686D01*
X97774366Y-86586697D01*
X97833258Y-86806488D01*
X97833261Y-86806497D01*
X97929431Y-87012732D01*
X97929432Y-87012734D01*
X98059954Y-87199141D01*
X98220858Y-87360045D01*
X98220861Y-87360047D01*
X98407266Y-87490568D01*
X98613504Y-87586739D01*
X98833308Y-87645635D01*
X98995230Y-87659801D01*
X99059998Y-87665468D01*
X99060000Y-87665468D01*
X99060002Y-87665468D01*
X99116673Y-87660509D01*
X99286692Y-87645635D01*
X99382932Y-87619847D01*
X99452781Y-87621510D01*
X99502706Y-87651941D01*
X99693181Y-87842416D01*
X99726666Y-87903739D01*
X99729500Y-87930097D01*
X99729500Y-90083330D01*
X99729499Y-90083348D01*
X99729499Y-90249054D01*
X99729498Y-90249054D01*
X99770424Y-90401789D01*
X99770425Y-90401790D01*
X99790340Y-90436283D01*
X99790341Y-90436284D01*
X99849477Y-90538712D01*
X99849481Y-90538717D01*
X99968349Y-90657585D01*
X99968355Y-90657590D01*
X101115139Y-91804374D01*
X101115149Y-91804385D01*
X101119479Y-91808715D01*
X101119480Y-91808716D01*
X101231284Y-91920520D01*
X101318095Y-91970639D01*
X101318097Y-91970641D01*
X101361914Y-91995939D01*
X101368215Y-91999577D01*
X101520942Y-92040500D01*
X101520943Y-92040500D01*
X102783331Y-92040500D01*
X102783347Y-92040501D01*
X102790943Y-92040501D01*
X102949054Y-92040501D01*
X102949057Y-92040501D01*
X103101785Y-91999577D01*
X103151904Y-91970639D01*
X103238716Y-91920520D01*
X103350520Y-91808716D01*
X103350520Y-91808714D01*
X103360728Y-91798507D01*
X103360730Y-91798504D01*
X104498506Y-90660728D01*
X104498511Y-90660724D01*
X104508714Y-90650520D01*
X104508716Y-90650520D01*
X104620520Y-90538716D01*
X104679659Y-90436284D01*
X104699577Y-90401785D01*
X104740500Y-90249058D01*
X104740500Y-90090943D01*
X104740500Y-90090942D01*
X104740500Y-83740943D01*
X104720291Y-83665519D01*
X104699577Y-83588215D01*
X104670639Y-83538095D01*
X104620520Y-83451284D01*
X104508716Y-83339480D01*
X104508715Y-83339479D01*
X104504385Y-83335149D01*
X104504374Y-83335139D01*
X103357590Y-82188355D01*
X103357588Y-82188352D01*
X103238717Y-82069481D01*
X103238716Y-82069480D01*
X103151904Y-82019360D01*
X103151904Y-82019359D01*
X103151900Y-82019358D01*
X103101785Y-81990423D01*
X102949057Y-81949499D01*
X102790943Y-81949499D01*
X102783347Y-81949499D01*
X102783331Y-81949500D01*
X98725098Y-81949500D01*
X98658059Y-81929815D01*
X98637417Y-81913181D01*
X98277590Y-81553355D01*
X98277588Y-81553352D01*
X98158717Y-81434481D01*
X98158716Y-81434480D01*
X98071904Y-81384360D01*
X98071904Y-81384359D01*
X98071900Y-81384358D01*
X98021785Y-81355423D01*
X97869057Y-81314499D01*
X97710943Y-81314499D01*
X97703347Y-81314499D01*
X97703331Y-81314500D01*
X88986670Y-81314500D01*
X88986654Y-81314499D01*
X88979058Y-81314499D01*
X88820943Y-81314499D01*
X88744579Y-81334961D01*
X88668214Y-81355423D01*
X88668209Y-81355426D01*
X88531290Y-81434475D01*
X88531282Y-81434481D01*
X88052584Y-81913181D01*
X87991261Y-81946666D01*
X87964903Y-81949500D01*
X79461670Y-81949500D01*
X79461654Y-81949499D01*
X79454058Y-81949499D01*
X79295943Y-81949499D01*
X79219579Y-81969961D01*
X79143214Y-81990423D01*
X79143209Y-81990426D01*
X79006290Y-82069475D01*
X79006282Y-82069481D01*
X78259479Y-82816284D01*
X78236817Y-82855536D01*
X78227239Y-82872128D01*
X78180423Y-82953215D01*
X78139499Y-83105943D01*
X78139499Y-83105945D01*
X78139499Y-83274046D01*
X78139500Y-83274059D01*
X78139500Y-97068330D01*
X78139499Y-97068348D01*
X78139499Y-97234054D01*
X78139498Y-97234054D01*
X78139499Y-97234057D01*
X78180423Y-97386785D01*
X78180424Y-97386787D01*
X78180423Y-97386787D01*
X78188919Y-97401501D01*
X78188920Y-97401502D01*
X78259477Y-97523712D01*
X78259481Y-97523717D01*
X78378349Y-97642585D01*
X78378354Y-97642589D01*
X79006284Y-98270520D01*
X79006286Y-98270521D01*
X79006290Y-98270524D01*
X79143209Y-98349573D01*
X79143216Y-98349577D01*
X79295943Y-98390501D01*
X79295945Y-98390501D01*
X79461654Y-98390501D01*
X79461670Y-98390500D01*
X81359055Y-98390500D01*
X81359057Y-98390500D01*
X81511784Y-98349577D01*
X81648716Y-98270520D01*
X81760520Y-98158716D01*
X81839577Y-98021784D01*
X81880500Y-97869057D01*
X81880500Y-97710943D01*
X81839577Y-97558216D01*
X81817539Y-97520045D01*
X81760524Y-97421290D01*
X81760518Y-97421282D01*
X81648717Y-97309481D01*
X81648709Y-97309475D01*
X81511790Y-97230426D01*
X81511786Y-97230424D01*
X81511784Y-97230423D01*
X81359057Y-97189500D01*
X81359056Y-97189500D01*
X81285463Y-97189500D01*
X81218424Y-97169815D01*
X81172669Y-97117011D01*
X81162725Y-97047853D01*
X81173081Y-97013095D01*
X81200894Y-96953450D01*
X81258070Y-96740068D01*
X81277323Y-96520000D01*
X81276233Y-96507546D01*
X81263806Y-96365500D01*
X81258070Y-96299932D01*
X81200894Y-96086550D01*
X81107534Y-95886339D01*
X80980826Y-95705380D01*
X80824620Y-95549174D01*
X80824616Y-95549171D01*
X80824615Y-95549170D01*
X80663377Y-95436270D01*
X80619752Y-95381693D01*
X80610500Y-95334695D01*
X80610500Y-92625304D01*
X80630185Y-92558265D01*
X80663375Y-92523730D01*
X80824620Y-92410826D01*
X80980826Y-92254620D01*
X81107534Y-92073662D01*
X81200894Y-91873450D01*
X81258070Y-91660068D01*
X81274220Y-91475468D01*
X81277323Y-91440002D01*
X81277323Y-91439997D01*
X81270103Y-91357474D01*
X81258070Y-91219932D01*
X81200894Y-91006550D01*
X81107534Y-90806339D01*
X80980826Y-90625380D01*
X80824620Y-90469174D01*
X80824616Y-90469171D01*
X80824615Y-90469170D01*
X80663377Y-90356270D01*
X80619752Y-90301693D01*
X80610500Y-90254695D01*
X80610500Y-90085304D01*
X80630185Y-90018265D01*
X80663375Y-89983730D01*
X80824620Y-89870826D01*
X80980826Y-89714620D01*
X81107534Y-89533662D01*
X81200894Y-89333450D01*
X81258070Y-89120068D01*
X81277323Y-88900000D01*
X81258070Y-88679932D01*
X81200894Y-88466550D01*
X81107534Y-88266339D01*
X80980826Y-88085380D01*
X80824620Y-87929174D01*
X80824616Y-87929171D01*
X80824615Y-87929170D01*
X80663377Y-87816270D01*
X80619752Y-87761693D01*
X80610500Y-87714695D01*
X80610500Y-85005304D01*
X80630185Y-84938265D01*
X80663375Y-84903730D01*
X80824620Y-84790826D01*
X80980826Y-84634620D01*
X81057366Y-84525309D01*
X81093730Y-84473377D01*
X81148307Y-84429752D01*
X81195305Y-84420500D01*
X83740943Y-84420500D01*
X84154903Y-84420500D01*
X84221942Y-84440185D01*
X84242584Y-84456819D01*
X85068058Y-85282293D01*
X85101543Y-85343616D01*
X85100152Y-85402067D01*
X85074366Y-85498302D01*
X85074364Y-85498312D01*
X85068904Y-85560722D01*
X85043451Y-85625791D01*
X84986860Y-85666769D01*
X84917098Y-85670646D01*
X84856314Y-85636192D01*
X84843801Y-85621037D01*
X84843522Y-85620639D01*
X84790826Y-85545380D01*
X84634620Y-85389174D01*
X84634616Y-85389171D01*
X84634615Y-85389170D01*
X84453666Y-85262468D01*
X84453662Y-85262466D01*
X84453660Y-85262465D01*
X84253450Y-85169106D01*
X84253447Y-85169105D01*
X84253445Y-85169104D01*
X84040070Y-85111930D01*
X84040062Y-85111929D01*
X83820002Y-85092677D01*
X83819998Y-85092677D01*
X83599937Y-85111929D01*
X83599929Y-85111930D01*
X83386554Y-85169104D01*
X83386548Y-85169107D01*
X83186340Y-85262465D01*
X83186338Y-85262466D01*
X83005377Y-85389175D01*
X82849175Y-85545377D01*
X82722466Y-85726338D01*
X82722465Y-85726340D01*
X82629107Y-85926548D01*
X82629104Y-85926554D01*
X82571930Y-86139929D01*
X82571929Y-86139937D01*
X82552677Y-86359997D01*
X82552677Y-86360002D01*
X82571929Y-86580062D01*
X82571930Y-86580070D01*
X82629104Y-86793445D01*
X82629105Y-86793447D01*
X82629106Y-86793450D01*
X82635190Y-86806497D01*
X82722466Y-86993662D01*
X82722468Y-86993666D01*
X82849170Y-87174615D01*
X82849174Y-87174620D01*
X83005380Y-87330826D01*
X83166623Y-87443729D01*
X83210248Y-87498306D01*
X83219500Y-87545304D01*
X83219500Y-92794695D01*
X83199815Y-92861734D01*
X83166623Y-92896270D01*
X83005378Y-93009174D01*
X82849175Y-93165377D01*
X82722466Y-93346338D01*
X82722465Y-93346340D01*
X82629107Y-93546548D01*
X82629104Y-93546554D01*
X82571930Y-93759929D01*
X82571929Y-93759937D01*
X82552677Y-93979997D01*
X82552677Y-93980002D01*
X82571929Y-94200062D01*
X82571930Y-94200070D01*
X82629104Y-94413445D01*
X82629105Y-94413447D01*
X82629106Y-94413450D01*
X82706551Y-94579532D01*
X82722466Y-94613662D01*
X82722468Y-94613666D01*
X82821033Y-94754431D01*
X82849174Y-94794620D01*
X83005380Y-94950826D01*
X83005382Y-94950827D01*
X83005384Y-94950829D01*
X83166622Y-95063729D01*
X83210247Y-95118306D01*
X83219499Y-95165304D01*
X83219499Y-95329054D01*
X83219498Y-95329054D01*
X83260424Y-95481789D01*
X83260425Y-95481790D01*
X83280340Y-95516283D01*
X83280341Y-95516284D01*
X83339477Y-95618712D01*
X83339481Y-95618717D01*
X83458349Y-95737585D01*
X83458354Y-95737589D01*
X84086284Y-96365520D01*
X84086286Y-96365521D01*
X84086290Y-96365524D01*
X84202365Y-96432539D01*
X84223216Y-96444577D01*
X84343088Y-96476697D01*
X84402749Y-96513063D01*
X84433277Y-96575910D01*
X84424982Y-96645285D01*
X84382117Y-96698047D01*
X84250858Y-96789954D01*
X84089954Y-96950858D01*
X83959432Y-97137265D01*
X83959431Y-97137267D01*
X83863261Y-97343502D01*
X83863258Y-97343511D01*
X83804366Y-97563302D01*
X83804364Y-97563313D01*
X83784532Y-97789998D01*
X83784532Y-97790001D01*
X83804364Y-98016686D01*
X83804366Y-98016697D01*
X83863258Y-98236488D01*
X83863261Y-98236497D01*
X83959431Y-98442732D01*
X83959432Y-98442734D01*
X84089954Y-98629141D01*
X84250855Y-98790042D01*
X84250858Y-98790044D01*
X84250861Y-98790047D01*
X84436625Y-98920119D01*
X84480247Y-98974692D01*
X84489499Y-99021691D01*
X84489499Y-99139054D01*
X84489498Y-99139054D01*
X84530424Y-99291789D01*
X84530425Y-99291790D01*
X84550340Y-99326283D01*
X84550341Y-99326284D01*
X84609477Y-99428712D01*
X84609481Y-99428717D01*
X84728349Y-99547585D01*
X84728355Y-99547590D01*
X85088181Y-99907416D01*
X85121666Y-99968739D01*
X85124500Y-99995097D01*
X85124500Y-100310908D01*
X85104815Y-100377947D01*
X85052914Y-100423286D01*
X85047173Y-100425963D01*
X85047169Y-100425965D01*
X84853597Y-100561505D01*
X84686505Y-100728597D01*
X84556575Y-100914158D01*
X84501998Y-100957783D01*
X84432500Y-100964977D01*
X84370145Y-100933454D01*
X84353425Y-100914158D01*
X84223494Y-100728597D01*
X84056402Y-100561506D01*
X84056395Y-100561501D01*
X83862834Y-100425967D01*
X83862830Y-100425965D01*
X83785499Y-100389905D01*
X83648663Y-100326097D01*
X83648659Y-100326096D01*
X83648655Y-100326094D01*
X83420413Y-100264938D01*
X83420403Y-100264936D01*
X83185001Y-100244341D01*
X83184999Y-100244341D01*
X82949596Y-100264936D01*
X82949586Y-100264938D01*
X82721344Y-100326094D01*
X82721335Y-100326098D01*
X82507171Y-100425964D01*
X82507169Y-100425965D01*
X82313597Y-100561505D01*
X82146508Y-100728594D01*
X82016269Y-100914595D01*
X81961692Y-100958219D01*
X81892193Y-100965412D01*
X81829839Y-100933890D01*
X81813119Y-100914594D01*
X81683113Y-100728926D01*
X81683108Y-100728920D01*
X81516082Y-100561894D01*
X81322578Y-100426399D01*
X81108492Y-100326570D01*
X81108486Y-100326567D01*
X80895000Y-100269364D01*
X80895000Y-101166988D01*
X80837993Y-101134075D01*
X80710826Y-101100000D01*
X80579174Y-101100000D01*
X80452007Y-101134075D01*
X80395000Y-101166988D01*
X80395000Y-100269364D01*
X80394999Y-100269364D01*
X80181513Y-100326567D01*
X80181507Y-100326570D01*
X79967422Y-100426399D01*
X79967420Y-100426400D01*
X79773926Y-100561886D01*
X79773920Y-100561891D01*
X79606891Y-100728920D01*
X79606890Y-100728922D01*
X79476575Y-100915031D01*
X79421998Y-100958655D01*
X79352499Y-100965848D01*
X79290145Y-100934326D01*
X79273425Y-100915031D01*
X79143109Y-100728922D01*
X79143108Y-100728920D01*
X78976082Y-100561894D01*
X78782578Y-100426399D01*
X78568492Y-100326570D01*
X78568486Y-100326567D01*
X78355000Y-100269364D01*
X78355000Y-101166988D01*
X78297993Y-101134075D01*
X78170826Y-101100000D01*
X78039174Y-101100000D01*
X77912007Y-101134075D01*
X77855000Y-101166988D01*
X77855000Y-100269364D01*
X77854999Y-100269364D01*
X77641513Y-100326567D01*
X77641507Y-100326570D01*
X77427422Y-100426399D01*
X77427420Y-100426400D01*
X77233926Y-100561886D01*
X77233920Y-100561891D01*
X77066891Y-100728920D01*
X77066890Y-100728922D01*
X76936880Y-100914595D01*
X76882303Y-100958219D01*
X76812804Y-100965412D01*
X76750450Y-100933890D01*
X76733730Y-100914594D01*
X76603494Y-100728597D01*
X76436402Y-100561506D01*
X76436395Y-100561501D01*
X76242834Y-100425967D01*
X76242830Y-100425965D01*
X76165499Y-100389905D01*
X76028663Y-100326097D01*
X76028659Y-100326096D01*
X76028655Y-100326094D01*
X75800413Y-100264938D01*
X75800403Y-100264936D01*
X75565001Y-100244341D01*
X75564999Y-100244341D01*
X75329596Y-100264936D01*
X75329586Y-100264938D01*
X75101344Y-100326094D01*
X75101335Y-100326098D01*
X74887171Y-100425964D01*
X74887169Y-100425965D01*
X74693597Y-100561505D01*
X74526505Y-100728597D01*
X74390965Y-100922169D01*
X74390964Y-100922171D01*
X74291098Y-101136335D01*
X74291094Y-101136344D01*
X74229938Y-101364586D01*
X74229936Y-101364596D01*
X74209341Y-101599999D01*
X74209341Y-101600000D01*
X74229936Y-101835403D01*
X74229938Y-101835413D01*
X74291094Y-102063655D01*
X74291097Y-102063664D01*
X74308041Y-102100000D01*
X74351453Y-102193097D01*
X74361945Y-102262172D01*
X74333426Y-102325956D01*
X74274949Y-102364196D01*
X74239071Y-102369500D01*
X69204500Y-102369500D01*
X69137461Y-102349815D01*
X69091706Y-102297011D01*
X69080500Y-102245500D01*
X69080500Y-93979997D01*
X69852677Y-93979997D01*
X69852677Y-93980002D01*
X69871929Y-94200062D01*
X69871930Y-94200070D01*
X69929104Y-94413445D01*
X69929105Y-94413447D01*
X69929106Y-94413450D01*
X70006551Y-94579532D01*
X70022466Y-94613662D01*
X70022468Y-94613666D01*
X70121033Y-94754431D01*
X70149174Y-94794620D01*
X70305380Y-94950826D01*
X70305382Y-94950827D01*
X70305384Y-94950829D01*
X70486333Y-95077531D01*
X70486335Y-95077532D01*
X70486338Y-95077534D01*
X70686550Y-95170894D01*
X70899932Y-95228070D01*
X71057123Y-95241822D01*
X71119998Y-95247323D01*
X71120000Y-95247323D01*
X71120002Y-95247323D01*
X71175017Y-95242509D01*
X71340068Y-95228070D01*
X71553450Y-95170894D01*
X71753662Y-95077534D01*
X71934620Y-94950826D01*
X72090826Y-94794620D01*
X72217534Y-94613662D01*
X72310894Y-94413450D01*
X72368070Y-94200068D01*
X72386233Y-93992455D01*
X72387323Y-93980002D01*
X72387323Y-93979997D01*
X72376467Y-93855909D01*
X72368070Y-93759932D01*
X72310894Y-93546550D01*
X72217534Y-93346339D01*
X72114492Y-93199179D01*
X72090827Y-93165381D01*
X72090823Y-93165377D01*
X71934620Y-93009174D01*
X71934616Y-93009171D01*
X71934615Y-93009170D01*
X71753666Y-92882468D01*
X71753662Y-92882466D01*
X71694214Y-92854745D01*
X71553450Y-92789106D01*
X71553447Y-92789105D01*
X71553445Y-92789104D01*
X71340070Y-92731930D01*
X71340062Y-92731929D01*
X71120002Y-92712677D01*
X71119998Y-92712677D01*
X70899937Y-92731929D01*
X70899929Y-92731930D01*
X70686554Y-92789104D01*
X70686548Y-92789107D01*
X70486340Y-92882465D01*
X70486338Y-92882466D01*
X70305377Y-93009175D01*
X70149175Y-93165377D01*
X70022466Y-93346338D01*
X70022465Y-93346340D01*
X69929107Y-93546548D01*
X69929104Y-93546554D01*
X69871930Y-93759929D01*
X69871929Y-93759937D01*
X69852677Y-93979997D01*
X69080500Y-93979997D01*
X69080500Y-86359997D01*
X69852677Y-86359997D01*
X69852677Y-86360002D01*
X69871929Y-86580062D01*
X69871930Y-86580070D01*
X69929104Y-86793445D01*
X69929105Y-86793447D01*
X69929106Y-86793450D01*
X69935190Y-86806497D01*
X70022466Y-86993662D01*
X70022468Y-86993666D01*
X70149170Y-87174615D01*
X70149174Y-87174620D01*
X70305380Y-87330826D01*
X70305382Y-87330827D01*
X70305384Y-87330829D01*
X70486333Y-87457531D01*
X70486335Y-87457532D01*
X70486338Y-87457534D01*
X70686550Y-87550894D01*
X70899932Y-87608070D01*
X71053556Y-87621510D01*
X71119998Y-87627323D01*
X71120000Y-87627323D01*
X71120002Y-87627323D01*
X71186444Y-87621510D01*
X71340068Y-87608070D01*
X71553450Y-87550894D01*
X71753662Y-87457534D01*
X71934620Y-87330826D01*
X72090826Y-87174620D01*
X72217534Y-86993662D01*
X72310894Y-86793450D01*
X72368070Y-86580068D01*
X72387323Y-86360000D01*
X72385881Y-86343523D01*
X72375125Y-86220570D01*
X72368070Y-86139932D01*
X72310894Y-85926550D01*
X72217534Y-85726339D01*
X72090826Y-85545380D01*
X71934620Y-85389174D01*
X71934616Y-85389171D01*
X71934615Y-85389170D01*
X71753666Y-85262468D01*
X71753662Y-85262466D01*
X71753660Y-85262465D01*
X71553450Y-85169106D01*
X71553447Y-85169105D01*
X71553445Y-85169104D01*
X71340070Y-85111930D01*
X71340062Y-85111929D01*
X71120002Y-85092677D01*
X71119998Y-85092677D01*
X70899937Y-85111929D01*
X70899929Y-85111930D01*
X70686554Y-85169104D01*
X70686548Y-85169107D01*
X70486340Y-85262465D01*
X70486338Y-85262466D01*
X70305377Y-85389175D01*
X70149175Y-85545377D01*
X70022466Y-85726338D01*
X70022465Y-85726340D01*
X69929107Y-85926548D01*
X69929104Y-85926554D01*
X69871930Y-86139929D01*
X69871929Y-86139937D01*
X69852677Y-86359997D01*
X69080500Y-86359997D01*
X69080500Y-78094500D01*
X69100185Y-78027461D01*
X69152989Y-77981706D01*
X69204500Y-77970500D01*
X74234071Y-77970500D01*
X74301110Y-77990185D01*
G37*
%TD.AperFunction*%
%TA.AperFunction,Conductor*%
G36*
X80179075Y-101407007D02*
G01*
X80145000Y-101534174D01*
X80145000Y-101665826D01*
X80179075Y-101792993D01*
X80211988Y-101850000D01*
X78538012Y-101850000D01*
X78570925Y-101792993D01*
X78605000Y-101665826D01*
X78605000Y-101534174D01*
X78570925Y-101407007D01*
X78538012Y-101350000D01*
X80211988Y-101350000D01*
X80179075Y-101407007D01*
G37*
%TD.AperFunction*%
%TA.AperFunction,Conductor*%
G36*
X103039075Y-101407007D02*
G01*
X103005000Y-101534174D01*
X103005000Y-101665826D01*
X103039075Y-101792993D01*
X103071988Y-101850000D01*
X101398012Y-101850000D01*
X101430925Y-101792993D01*
X101465000Y-101665826D01*
X101465000Y-101534174D01*
X101430925Y-101407007D01*
X101398012Y-101350000D01*
X103071988Y-101350000D01*
X103039075Y-101407007D01*
G37*
%TD.AperFunction*%
%TD*%
M02*
